HIERARCHY
ROOT Hips
{
	OFFSET 0.00000 0.00000 0.00000
	CHANNELS 6 Xposition Yposition Zposition Zrotation Yrotation Xrotation 
	JOINT LHipJoint
	{
		OFFSET 0 0 0
		CHANNELS 3 Zrotation Yrotation Xrotation
		JOINT LeftHip
		{
			OFFSET 1.56857 -1.73443 1.15205
			CHANNELS 3 Zrotation Yrotation Xrotation
			JOINT LeftKnee
			{
				OFFSET 2.39362 -6.57643 0.00000
				CHANNELS 3 Zrotation Yrotation Xrotation
				JOINT LeftAnkle
				{
					OFFSET 2.50952 -6.89485 0.00000
					CHANNELS 3 Zrotation Yrotation Xrotation
					JOINT LeftToe
					{
						OFFSET 0.17171 -0.47178 1.88682
						CHANNELS 3 Zrotation Yrotation Xrotation
						End Site
						{
							OFFSET 0.00000 -0.00000 0.98146
						}
					}
				}
			}
		}
	}
	JOINT RHipJoint
	{
		OFFSET 0 0 0
		CHANNELS 3 Zrotation Yrotation Xrotation
		JOINT RightHip
		{
			OFFSET -1.28153 -1.73443 1.15205
			CHANNELS 3 Zrotation Yrotation Xrotation
			JOINT RightKnee
			{
				OFFSET -2.26861 -6.23296 0.00000
				CHANNELS 3 Zrotation Yrotation Xrotation
				JOINT RightAnkle
				{
					OFFSET -2.54143 -6.98254 0.00000
					CHANNELS 3 Zrotation Yrotation Xrotation
					JOINT RightToe
					{
						OFFSET -0.23309 -0.64041 1.93119
						CHANNELS 3 Zrotation Yrotation Xrotation
						End Site
						{
							OFFSET -0.00000 -0.00000 1.02013
						}
					}
				}
			}
		}
	}
	JOINT lowerback
	{
		OFFSET 0 0 0
		CHANNELS 3 Zrotation Yrotation Xrotation
		JOINT Chest
		{
			OFFSET -0.07096 2.10460 -0.27878
			CHANNELS 3 Zrotation Yrotation Xrotation
			JOINT Chest2
			{
				OFFSET -0.00826 2.13662 -0.08279
				CHANNELS 3 Zrotation Yrotation Xrotation
				JOINT lowerneck
				{
					OFFSET 0 0 0
					CHANNELS 3 Zrotation Yrotation Xrotation
					JOINT Neck
					{
						OFFSET 0.03239 1.77799 0.24435
						CHANNELS 3 Zrotation Yrotation Xrotation
						JOINT Head
						{
							OFFSET 0.01026 1.74194 -0.49664
							CHANNELS 3 Zrotation Yrotation Xrotation
							End Site
							{
								OFFSET 0.00170 1.83057 -0.19653
							}
						}
					}
				}
				JOINT LeftCollar
				{
					OFFSET 0 0 0
					CHANNELS 3 Zrotation Yrotation Xrotation
					JOINT LeftShoulder
					{
						OFFSET 3.19178 1.35907 -0.31412
CHANNELS 3 Zrotation Xrotation Yrotation
						JOINT LeftElbow
						{
OFFSET 0 -4.852470 -0.000000
CHANNELS 3 Zrotation Xrotation Yrotation
							JOINT LeftWrist
							{
OFFSET 0 -3.555840 0.000000
CHANNELS 3 Zrotation Xrotation Yrotation
								JOINT lhand
								{
									OFFSET 0 0 0
CHANNELS 3 Zrotation Xrotation Yrotation
									JOINT LFingers
									{
OFFSET 0 -0.693200 0.000000
CHANNELS 3 Zrotation Xrotation Yrotation
										End Site
										{
OFFSET 0 -0.558880 0.000000
										}
									}
								}
								JOINT LThumb
								{
OFFSET 0 0.000000 0.000000
CHANNELS 3 Zrotation Xrotation Yrotation
									End Site
									{
OFFSET 0 -0.567410 0.567410
									}
								}
							}
						}
					}
				}
				JOINT RightCollar
				{
					OFFSET 0 0 0
					CHANNELS 3 Zrotation Yrotation Xrotation
					JOINT RightShoulder
					{
						OFFSET -3.28999 1.24191 -0.26899
CHANNELS 3 Zrotation Xrotation Yrotation
						JOINT RightElbow
						{
OFFSET 0 -4.644620 0.000000
CHANNELS 3 Zrotation Xrotation Yrotation
							JOINT RightWrist
							{
OFFSET 0 -3.407030 0.000000
CHANNELS 3 Zrotation Xrotation Yrotation
								JOINT rhand
								{
									OFFSET 0 0 0
CHANNELS 3 Zrotation Xrotation Yrotation
									JOINT RFingers
									{
OFFSET 0 -0.619580 0.000000
CHANNELS 3 Zrotation Xrotation Yrotation
										End Site
										{
OFFSET 0 -0.499520 0.000000
										}
									}
								}
								JOINT RThumb
								{
OFFSET 0 0.000000 0.000000
CHANNELS 3 Zrotation Xrotation Yrotation
									End Site
									{
OFFSET 0 -0.507150 0.507150
									}
								}
							}
						}
					}
				}
			}
		}
	}
}
MOTION
Frames: 15
Frame Time: .0083333
-28.0267 17.1569 0.6328 18.1421 82.5606 19.0027 0.0000 0.0000 0.0000 -12.1933 5.8894 10.7832 0.0000 -0.0320 -0.0878 0.3612 9.2201 -18.2156 0.3408 -3.7513 -10.3781 0.0000 0.0000 0.0000 8.6958 -5.8772 9.0928 -0.0250 -1.0217 2.8086 -0.9431 -1.0473 -18.7555 -0.0105 -0.6632 1.8224 -5.4154 1.9345 4.6337 -0.2391 2.3403 1.2418 2.6469 1.1924 -1.5222 4.3331 4.0947 -20.4422 -2.5181 5.3927 25.6389 -0.7702 2.6087 12.0181 0.0000 0.0000 0.0000 4.561 1.5582 -45.6401 15.8863 -25.3663 3.5971 10.4504 8.4623 25.6654 0.0 0.0 0.0 -7.1250 0.0 0.0 -11.6564 4.3926 -10.9632 0.0000 0.0000 0.0000 -4.9288 4.5011 30.4701 -17.7065 -27.7797 -4.4116 -10.6095 10.0966 31.3804 0.0 0.0 0.0 7.1250 0.0 -0.0 24.3728 60.116 -9.317
-28.0271 17.1566 0.6381 18.2939 82.5248 19.1222 0.0000 0.0000 0.0000 -12.1114 6.1339 10.7788 0.0001 -0.0562 -0.1545 0.3321 9.2495 -17.9042 0.4073 -4.0971 -11.3499 0.0000 0.0000 0.0000 8.7010 -5.7248 9.1430 -0.0269 -1.0595 2.9126 -0.9781 -0.8466 -19.0128 -0.0236 -0.9913 2.7249 -5.5408 1.9408 4.7114 -0.1986 2.3389 1.2512 2.7565 1.1930 -1.5622 4.2424 4.0856 -20.4624 -2.4881 5.3962 25.5884 -0.7434 2.6043 11.9984 -0.0000 0.0000 0.0000 4.7467 1.641 -46.0337 16.0929 -25.6464 3.6861 9.7871 8.5291 25.5996 0.0 0.0 0.0 -7.1250 0.0 0.0 -12.0534 4.5335 -11.3215 -0.0000 0.0000 0.0000 -4.8899 4.5998 30.4931 -17.8241 -27.9314 -4.4666 -10.6408 9.9668 31.3184 0.0 0.0 0.0 7.1250 0.0 -0.0 24.2879 60.0675 -9.254
-28.0281 17.1543 0.6428 18.1738 82.4879 19.0446 0.0000 0.0000 0.0000 -12.0041 6.3490 10.7075 0.0002 -0.0816 -0.2243 0.3155 9.2451 -17.7005 0.5083 -4.5700 -12.6861 0.0000 0.0000 0.0000 8.7680 -5.5460 9.1185 -0.0291 -1.1019 3.0292 -1.0090 -0.8084 -19.2916 -0.0220 -0.9584 2.6342 -5.5661 1.9363 4.7454 -0.1922 2.3279 1.2160 2.7761 1.1895 -1.6179 4.1996 4.0549 -20.4939 -2.5463 5.3964 25.7581 -0.7563 2.5938 12.0715 -0.0000 -0.0000 0.0000 4.9685 1.7611 -46.1943 16.3310 -25.9674 3.7897 9.1335 8.7088 25.6426 0.0 0.0 0.0 -7.1250 0.0 0.0 -12.4478 4.5641 -11.703 -0.0000 -0.0000 0.0000 -4.8341 4.7673 30.6107 -17.9735 -28.1232 -4.5367 -10.593 9.632 30.9734 0.0 0.0 0.0 7.1250 0.0 -0.0 24.0488 59.7451 -8.9697
-28.0262 17.1519 0.6477 17.8324 82.4006 18.7958 0.0000 0.0000 0.0000 -11.9061 6.4835 10.6457 0.0003 -0.1140 -0.3131 0.3499 8.9895 -17.8436 0.4620 -4.3601 -12.0922 0.0000 0.0000 0.0000 8.7934 -5.5308 8.9005 -0.0338 -1.1864 3.2617 -1.0315 -0.6524 -19.4422 -0.0110 -0.6768 1.8599 -5.5194 1.9526 4.6782 -0.2457 2.3543 1.1894 2.6947 1.2026 -1.6061 4.1934 4.0391 -20.5150 -2.4369 5.3414 25.7648 -0.7231 2.5826 12.0723 -0.0000 -0.0000 0.0000 5.294 1.8319 -46.277 16.5734 -26.2919 3.8965 9.1268 8.5896 25.839 0.0 0.0 0.0 -7.1250 0.0 0.0 -12.4576 4.3723 -11.7585 -0.0000 -0.0000 0.0000 -4.6706 5.0562 30.7009 -18.2371 -28.4597 -4.6617 -10.5935 9.3772 31.0208 0.0 0.0 0.0 7.1250 0.0 -0.0 24.0876 59.7881 -9.0101
-28.0236 17.1483 0.6530 18.3842 82.3161 19.4274 0.0000 0.0000 0.0000 -11.9690 6.5163 10.6036 0.0004 -0.1340 -0.3681 0.3881 8.7375 -18.0379 0.3526 -3.8149 -10.5564 0.0000 0.0000 0.0000 8.6068 -5.7402 8.5574 -0.0401 -1.2921 3.5529 -1.0418 -0.3255 -19.4164 -0.0012 -0.2201 0.6047 -5.5965 1.9720 4.6047 -0.3348 2.3814 1.2057 2.6469 1.2149 -1.5498 4.2175 4.0200 -20.6711 -2.3490 5.2676 25.7645 -0.7041 2.5602 12.0984 0.0000 -0.0000 0.0000 5.6382 1.7714 -46.4456 16.7752 -26.5605 3.9863 10.8502 7.5547 26.1912 0.0 0.0 0.0 -7.1250 0.0 0.0 -11.4373 3.8265 -10.8713 0.0000 -0.0000 0.0000 -4.4725 5.3038 30.7832 -18.5334 -28.8348 -4.8037 -10.5764 9.1034 31.412 0.0 0.0 0.0 7.1250 0.0 -0.0 24.4338 60.1367 -9.3542
-28.0216 17.1433 0.6573 19.1495 82.2961 20.2337 0.0000 0.0000 0.0000 -12.0969 6.4253 10.6141 0.0005 -0.1405 -0.3861 0.3839 8.8403 -18.0919 0.3973 -4.0470 -11.2089 0.0000 0.0000 0.0000 8.4280 -5.8927 8.2779 -0.0471 -1.4009 3.8527 -1.0482 -0.1092 -19.3985 -0.0004 0.1318 -0.3621 -5.6891 1.9638 4.6286 -0.3957 2.3649 1.2179 2.6363 1.2070 -1.5501 4.0561 3.9921 -20.8620 -2.1084 5.2010 25.8181 -0.5946 2.5430 12.1419 0.0000 0.0000 0.0000 5.9077 1.6511 -46.6025 16.9061 -26.7339 4.045 10.0767 7.7351 26.6412 0.0 0.0 0.0 -7.1250 0.0 0.0 -11.9182 3.476 -11.4278 0.0000 0.0000 0.0000 -4.3054 5.4405 30.8128 -18.7097 -29.0564 -4.8891 -10.5078 8.7906 31.369 0.0 0.0 0.0 7.1250 0.0 -0.0 24.4682 60.0819 -9.3361
-28.0201 17.1419 0.6622 20.1643 82.2280 21.2124 0.0000 0.0000 0.0000 -12.3281 6.2894 10.7290 0.0005 -0.1397 -0.3839 0.3795 9.0255 -18.2278 0.4982 -4.5252 -12.5592 0.0000 0.0000 0.0000 8.2089 -5.9702 8.0529 -0.0571 -1.5422 4.2421 -1.0657 0.1459 -19.4727 -0.0004 0.1271 -0.3492 -5.8684 1.9532 4.7519 -0.4549 2.3347 1.2333 2.6735 1.1942 -1.6048 3.9566 4.0029 -20.9947 -1.9255 5.1892 25.8585 -0.5088 2.5499 12.1747 -0.0000 -0.0000 0.0000 6.19 1.579 -46.6183 17.0855 -26.9704 4.1261 10.0081 7.9617 26.7005 0.0 0.0 0.0 -7.1250 0.0 0.0 -11.9614 3.4258 -11.4824 -0.0000 -0.0000 0.0000 -4.1589 5.5363 30.9093 -18.8495 -29.2313 -4.9572 -10.5369 8.532 31.3098 0.0 0.0 0.0 7.1250 0.0 -0.0 24.3880 60.0355 -9.2761
-28.0184 17.1417 0.6669 22.0648 82.0919 23.0637 0.0000 0.0000 0.0000 -12.7078 6.2835 10.8083 0.0005 -0.1415 -0.3887 0.3885 9.0087 -18.3139 0.5589 -4.7887 -13.3068 0.0000 0.0000 0.0000 7.7868 -6.1650 7.7990 -0.0663 -1.6617 4.5716 -1.0827 0.4680 -19.5235 -0.0005 0.1491 -0.4097 -6.2079 1.9531 4.8830 -0.5490 2.3102 1.2601 2.7638 1.1848 -1.6570 4.0464 4.0498 -21.1771 -1.9839 5.2362 25.9432 -0.5338 2.5689 12.2509 -0.0000 -0.0000 0.0000 6.5144 1.4792 -46.5846 17.4544 -27.4529 4.2947 9.3008 8.0864 26.6979 0.0 0.0 0.0 -7.1250 0.0 0.0 -12.3819 3.5107 -11.8861 -0.0000 -0.0000 0.0000 -4.0412 5.7293 31.1399 -19.1259 -29.5748 -5.0928 -10.654 8.2051 31.6618 0.0 0.0 0.0 7.1250 0.0 -0.0 24.5677 60.3795 -9.5525
-28.0155 17.1387 0.6700 24.0934 81.9870 25.1064 0.0000 0.0000 0.0000 -13.0820 6.2958 10.8100 0.0006 -0.1605 -0.4409 0.3855 8.9630 -18.2338 0.6103 -5.0002 -13.9091 0.0000 0.0000 0.0000 7.3857 -6.3033 7.5086 -0.0761 -1.7791 4.8955 -1.1111 0.6319 -19.7296 -0.0025 0.3202 -0.8797 -6.5081 1.9445 4.9298 -0.6383 2.2819 1.2847 2.8400 1.1721 -1.6623 4.0494 4.0277 -21.3794 -2.0830 5.2285 26.0577 -0.5685 2.5496 12.3395 0.0000 -0.0000 0.0000 6.8424 1.2479 -46.6887 17.7037 -27.7762 4.4103 9.4671 8.17 27.0283 0.0 0.0 0.0 -7.1250 0.0 0.0 -12.2955 3.1675 -11.8783 0.0000 -0.0000 0.0000 -3.9912 6.0997 31.3694 -19.5544 -30.1017 -5.306 -10.5406 7.7921 31.9391 0.0 0.0 0.0 7.1250 0.0 -0.0 24.9275 60.6012 -9.8354
-28.0151 17.1343 0.6757 24.9814 81.9175 26.0687 0.0000 0.0000 0.0000 -13.2291 6.2924 10.7249 0.0005 -0.1447 -0.3977 0.4322 8.7009 -18.5069 0.5091 -4.5737 -12.6966 0.0000 0.0000 0.0000 7.2674 -6.2075 7.1696 -0.0907 -1.9424 5.3465 -1.1424 1.0195 -19.8944 -0.0013 0.2366 -0.6501 -6.6221 1.9440 4.8810 -0.7098 2.2817 1.3276 2.8322 1.1701 -1.5919 3.8435 3.9314 -21.4368 -1.9322 5.1027 25.9186 -0.4993 2.4908 12.2800 0.0000 0.0000 0.0000 7.2022 0.8677 -46.693 18.0148 -28.1761 4.5562 9.3167 7.977 27.0804 0.0 0.0 0.0 -7.1250 0.0 0.0 -12.3865 3.1339 -11.9784 0.0000 0.0000 0.0000 -3.9609 6.4763 31.7051 -20.0032 -30.6463 -5.533 -10.3687 7.2705 32.0064 0.0 0.0 0.0 7.1250 0.0 -0.0 25.1653 60.6203 -9.9478
-28.0181 17.1300 0.6852 24.5468 81.8842 25.6857 0.0000 0.0000 0.0000 -13.0716 6.4739 10.5398 0.0001 -0.0555 -0.1526 0.5192 8.1617 -18.9617 0.3871 -3.9951 -11.0629 0.0000 0.0000 0.0000 7.3753 -6.1748 6.8487 -0.1075 -2.1139 5.8204 -1.1708 1.1682 -20.1031 -0.0101 0.6492 -1.7841 -6.5708 1.9606 4.9227 -0.7735 2.3035 1.3403 2.7351 1.1811 -1.5996 3.7504 3.8628 -21.2809 -1.7695 4.9747 25.6034 -0.4501 2.4459 12.1129 0.0000 -0.0000 0.0000 7.6462 0.5173 -46.6191 18.2989 -28.5382 4.6912 9.7358 7.7591 27.1476 0.0 0.0 0.0 -7.1250 0.0 0.0 -12.1411 3.019 -11.7558 0.0000 -0.0000 0.0000 -3.8092 6.7839 32.0152 -20.3322 -31.0405 -5.7017 -10.4421 6.8377 32.0329 0.0 0.0 0.0 7.1250 0.0 -0.0 25.1127 60.6614 -9.9502
-28.0214 17.1237 0.6978 22.8738 81.9483 24.1110 0.0000 0.0000 0.0000 -12.6445 6.6792 10.2494 0.0001 0.0560 0.1540 0.5539 7.8456 -19.0536 0.4576 -4.3396 -12.0340 0.0000 0.0000 0.0000 7.8052 -6.0176 6.5907 -0.1241 -2.2711 6.2556 -1.2220 1.2869 -20.5152 -0.0103 0.6542 -1.7978 -6.3745 1.9512 4.9656 -0.7558 2.2958 1.3193 2.6427 1.1778 -1.6381 3.7173 3.8152 -21.0930 -1.7455 4.9058 25.3606 -0.4526 2.4159 11.9770 0.0000 -0.0000 0.0000 8.0499 0.0461 -46.274 18.5197 -28.8175 4.7971 9.3294 8.4994 27.6042 0.0 0.0 0.0 -7.1250 0.0 0.0 -12.3995 2.6192 -12.1108 0.0000 -0.0000 0.0000 -3.7092 7.1071 32.3651 -20.6452 -31.4118 -5.8639 -10.6099 6.4753 31.9615 0.0 0.0 0.0 7.1250 0.0 -0.0 24.8752 60.6377 -9.8349
-28.0229 17.1167 0.7162 20.8490 82.0532 22.2029 0.0000 0.0000 0.0000 -12.1181 6.8235 9.9575 0.0006 0.1553 0.4266 0.5700 7.6449 -19.0516 0.5761 -4.8604 -13.5110 0.0000 0.0000 0.0000 8.4476 -5.5972 6.4065 -0.1391 -2.4035 6.6220 -1.2749 1.2091 -20.9862 -0.0029 0.3464 -0.9519 -6.2009 1.9407 4.9109 -0.6846 2.2980 1.3822 2.6223 1.1742 -1.5391 3.7621 3.8574 -21.3133 -1.7785 4.9384 25.2615 -0.4643 2.4249 11.9852 -0.0000 0.0000 0.0000 8.407 -0.6546 -45.8671 18.7531 -29.1107 4.9101 8.2684 9.3655 27.9 0.0 0.0 0.0 -7.1250 0.0 0.0 -13.0333 2.4523 -12.8037 -0.0000 0.0000 0.0000 -3.7345 7.4485 32.9591 -21.1505 -32.0036 -6.1295 -10.7633 5.8902 32.2043 0.0 0.0 0.0 7.1250 0.0 -0.0 24.9313 60.8916 -10.0102
-28.0206 17.1131 0.7357 21.2697 82.0608 22.5862 0.0000 0.0000 0.0000 -12.0783 6.8628 9.8681 0.0015 0.2484 0.6825 0.6057 7.4311 -19.2480 0.5766 -4.8626 -13.5172 0.0000 0.0000 0.0000 8.5477 -5.4739 6.2860 -0.1537 -2.5259 6.9614 -1.3081 1.2414 -21.2553 -0.0007 0.1665 -0.4575 -6.4164 1.9588 4.9418 -0.7118 2.3183 1.5336 2.7152 1.1793 -1.4082 3.6563 3.7699 -21.4783 -1.7022 4.8046 25.0810 -0.4398 2.3599 11.9378 0.0000 -0.0000 0.0000 8.8212 -1.3277 -45.8208 19.0878 -29.5277 5.0741 8.5645 8.5095 27.2779 0.0 0.0 0.0 -7.1250 0.0 0.0 -12.8379 3.0264 -12.4639 0.0000 -0.0000 0.0000 -3.7312 7.8152 33.5114 -21.7771 -32.7242 -6.4649 -10.8768 5.2849 32.6036 0.0 0.0 0.0 7.1250 0.0 -0.0 25.1749 61.2756 -10.346
-28.0158 17.1085 0.7500 23.4686 82.0248 24.7248 0.0000 0.0000 0.0000 -12.3854 6.9139 9.7411 0.0031 0.3619 0.9943 0.6307 7.2413 -19.3531 0.5684 -4.8284 -13.4198 0.0000 0.0000 0.0000 8.1958 -5.6568 6.1199 -0.1715 -2.6675 7.3544 -1.3406 1.5798 -21.4327 -0.0014 -0.2395 0.6581 -6.7851 1.9549 5.0043 -0.8355 2.2982 1.6504 2.7947 1.1667 -1.3284 3.5830 3.6909 -21.6973 -1.5986 4.6714 25.0586 -0.4081 2.3029 11.9629 0.0000 -0.0000 0.0000 9.3526 -1.8622 -45.8221 19.5237 -30.0642 5.2906 9.5707 7.3646 26.8277 0.0 0.0 0.0 -7.1250 0.0 0.0 -12.2264 3.3522 -11.766 0.0000 -0.0000 0.0000 -3.679 8.2358 33.9028 -22.3383 -33.3572 -6.7709 -10.7087 4.7712 32.6314 0.0 0.0 0.0 7.1250 0.0 -0.0 25.3765 61.2595 -10.4252
